<?xml version="1.0" encoding="iso-8859-1"?><!-- Generator: Adobe Illustrator 21.0.2, SVG Export Plug-In . SVG Version: 6.00 Build 0)  --><svg xmlns="http://www.w3.org/2000/svg" xmlns:xlink="http://www.w3.org/1999/xlink" viewBox="0 0 80 80" width="80px" height="80px"><circle cx="50" cy="33" r="1"/><circle cx="46" cy="33" r="1"/><circle cx="42" cy="33" r="1"/><circle cx="38" cy="33" r="1"/><circle cx="30" cy="33" r="1"/><circle cx="26" cy="33" r="1"/><circle cx="22" cy="33" r="1"/><circle cx="18" cy="33" r="1"/><circle cx="50" cy="38" r="1"/><circle cx="46" cy="38" r="1"/><circle cx="42" cy="38" r="1"/><circle cx="38" cy="38" r="1"/><circle cx="30" cy="38" r="1"/><circle cx="26" cy="38" r="1"/><circle cx="22" cy="38" r="1"/><circle cx="18" cy="38" r="1"/><circle cx="50" cy="43" r="1"/><circle cx="46" cy="43" r="1"/><circle cx="42" cy="43" r="1"/><circle cx="38" cy="43" r="1"/><circle cx="30" cy="43" r="1"/><circle cx="26" cy="43" r="1"/><circle cx="22" cy="43" r="1"/><circle cx="18" cy="43" r="1"/><circle cx="50" cy="48" r="1"/><circle cx="46" cy="48" r="1"/><circle cx="42" cy="48" r="1"/><circle cx="38" cy="48" r="1"/><circle cx="30" cy="48" r="1"/><circle cx="26" cy="48" r="1"/><circle cx="22" cy="48" r="1"/><circle cx="18" cy="48" r="1"/><circle cx="50" cy="53" r="1"/><circle cx="46" cy="53" r="1"/><circle cx="42" cy="53" r="1"/><circle cx="38" cy="53" r="1"/><circle cx="30" cy="53" r="1"/><circle cx="26" cy="53" r="1"/><circle cx="22" cy="53" r="1"/><circle cx="18" cy="53" r="1"/><circle cx="50" cy="58" r="1"/><circle cx="46" cy="58" r="1"/><circle cx="42" cy="58" r="1"/><circle cx="38" cy="58" r="1"/><circle cx="30" cy="58" r="1"/><circle cx="26" cy="58" r="1"/><circle cx="22" cy="58" r="1"/><circle cx="18" cy="58" r="1"/><circle cx="50" cy="63" r="1"/><circle cx="46" cy="63" r="1"/><circle cx="42" cy="63" r="1"/><circle cx="63" cy="31" r="1"/><circle cx="59" cy="31" r="1"/><circle cx="63" cy="36" r="1"/><circle cx="59" cy="36" r="1"/><circle cx="63" cy="41" r="1"/><circle cx="59" cy="41" r="1"/><circle cx="63" cy="46" r="1"/><circle cx="59" cy="46" r="1"/><circle cx="63" cy="51" r="1"/><circle cx="59" cy="51" r="1"/><circle cx="63" cy="56" r="1"/><circle cx="59" cy="56" r="1"/><circle cx="63" cy="61" r="1"/><circle cx="59" cy="61" r="1"/><circle cx="38" cy="63" r="1"/><circle cx="30" cy="63" r="1"/><circle cx="26" cy="63" r="1"/><circle cx="22" cy="63" r="1"/><circle cx="18" cy="63" r="1"/><path style="fill:none;stroke:#000000;stroke-width:2;stroke-miterlimit:10;" d="M58,64V10H10v54c0,3.314,2.686,6,6,6h48C60.686,70,58,67.314,58,64z"/><path style="fill:none;stroke:#000000;stroke-width:2;stroke-miterlimit:10;" d="M58,20h12v44c0,3.314-2.686,6-6,6"/><line style="fill:none;stroke:#000000;stroke-width:2;stroke-miterlimit:10;" x1="17" y1="26" x2="51" y2="26"/><line style="fill:none;stroke:#000000;stroke-width:2;stroke-miterlimit:10;" x1="17" y1="21" x2="51" y2="21"/></svg>